JetBrainsMoro-ExtraBold.ufo
<glyph name="comma" format="2">
  <advance width="600"/>
  <unicode hex="002C"/>
  <outline>
    <contour>
      <point x="175" y="-160" type="line"/>
      <point x="315" y="-160" type="line"/>
      <point x="395" y="151" type="line"/>
      <point x="227" y="151" type="line"/>
    </contour>
  </outline>
</glyph>
<glyph name="period" format="2">
  <advance width="600"/>
  <unicode hex="002E"/>
  <outline>
    <contour>
      <point x="300" y="-10" type="curve" smooth="yes"/>
      <point x="362" y="-10"/>
      <point x="401" y="29"/>
      <point x="401" y="91" type="curve" smooth="yes"/>
      <point x="401" y="153"/>
      <point x="362" y="192"/>
      <point x="300" y="192" type="curve" smooth="yes"/>
      <point x="238" y="192"/>
      <point x="199" y="153"/>
      <point x="199" y="91" type="curve" smooth="yes"/>
      <point x="199" y="29"/>
      <point x="238" y="-10"/>
    </contour>
  </outline>
</glyph>
<glyph name="seven" format="2">
  <advance width="600"/>
  <unicode hex="0037"/>
  <outline>
    <contour>
      <point x="136" y="0" type="line"/>
      <point x="300" y="0" type="line"/>
      <point x="565" y="601" type="line"/>
      <point x="565" y="730" type="line"/>
      <point x="55" y="730" type="line"/>
      <point x="55" y="480" type="line"/>
      <point x="205" y="480" type="line"/>
      <point x="205" y="600" type="line"/>
      <point x="407" y="600" type="line"/>
    </contour>
  </outline>
</glyph>
<glyph name="eight" format="2">
  <advance width="600"/>
  <unicode hex="0038"/>
  <outline>
    <contour>
      <point x="300" y="-10" type="curve" smooth="yes"/>
      <point x="452" y="-10"/>
      <point x="554" y="68"/>
      <point x="554" y="192" type="curve" smooth="yes"/>
      <point x="554" y="276"/>
      <point x="504" y="338"/>
      <point x="401" y="384" type="curve" smooth="yes"/>
      <point x="279" y="438" type="line" smooth="yes"/>
      <point x="237" y="457"/>
      <point x="207" y="492"/>
      <point x="207" y="534" type="curve" smooth="yes"/>
      <point x="207" y="582"/>
      <point x="245" y="616"/>
      <point x="300" y="616" type="curve" smooth="yes"/>
      <point x="354" y="616"/>
      <point x="391" y="582"/>
      <point x="391" y="534" type="curve" smooth="yes"/>
      <point x="391" y="491"/>
      <point x="362" y="455"/>
      <point x="321" y="437" type="curve" smooth="yes"/>
      <point x="199" y="384" type="line" smooth="yes"/>
      <point x="106" y="344"/>
      <point x="46" y="282"/>
      <point x="46" y="192" type="curve" smooth="yes"/>
      <point x="46" y="71"/>
      <point x="148" y="-10"/>
    </contour>
    <contour>
      <point x="300" y="114" type="curve" smooth="yes"/>
      <point x="240" y="114"/>
      <point x="192" y="153"/>
      <point x="192" y="205" type="curve" smooth="yes"/>
      <point x="192" y="245"/>
      <point x="229" y="287"/>
      <point x="272" y="306" type="curve" smooth="yes"/>
      <point x="409" y="367" type="line" smooth="yes"/>
      <point x="487" y="402"/>
      <point x="537" y="459"/>
      <point x="537" y="544" type="curve" smooth="yes"/>
      <point x="537" y="654"/>
      <point x="445" y="740"/>
      <point x="300" y="740" type="curve" smooth="yes"/>
      <point x="154" y="740"/>
      <point x="61" y="654"/>
      <point x="61" y="544" type="curve" smooth="yes"/>
      <point x="61" y="462"/>
      <point x="112" y="403"/>
      <point x="192" y="367" type="curve" smooth="yes"/>
      <point x="328" y="306" type="line" smooth="yes"/>
      <point x="371" y="287"/>
      <point x="408" y="244"/>
      <point x="408" y="204" type="curve" smooth="yes"/>
      <point x="408" y="153"/>
      <point x="360" y="114"/>
    </contour>
  </outline>
</glyph>
<glyph name="K" format="2">
  <advance width="600"/>
  <unicode hex="004B"/>
  <anchor x="300" y="0" name="bottom"/>
  <anchor x="300" y="730" name="top"/>
  <outline>
    <contour>
      <point x="65" y="0" type="line"/>
      <point x="215" y="0" type="line"/>
      <point x="215" y="313" type="line"/>
      <point x="286" y="313" type="line"/>
      <point x="411" y="0" type="line"/>
      <point x="575" y="0" type="line"/>
      <point x="417" y="384" type="line"/>
      <point x="569" y="730" type="line"/>
      <point x="407" y="730" type="line"/>
      <point x="285" y="443" type="line"/>
      <point x="215" y="443" type="line"/>
      <point x="215" y="730" type="line"/>
      <point x="65" y="730" type="line"/>
    </contour>
  </outline>
</glyph>
<glyph name="M" format="2">
  <advance width="600"/>
  <unicode hex="004D"/>
  <anchor x="300" y="0" name="bottom"/>
  <anchor x="300" y="730" name="top"/>
  <outline>
    <contour>
      <point x="42" y="0" type="line"/>
      <point x="179" y="0" type="line"/>
      <point x="179" y="280" type="line" smooth="yes"/>
      <point x="179" y="433"/>
      <point x="163" y="541"/>
      <point x="151" y="628" type="curve"/>
      <point x="236" y="310" type="line"/>
      <point x="361" y="310" type="line"/>
      <point x="446" y="640" type="line"/>
      <point x="435" y="538"/>
      <point x="421" y="426"/>
      <point x="421" y="280" type="curve" smooth="yes"/>
      <point x="421" y="0" type="line"/>
      <point x="558" y="0" type="line"/>
      <point x="558" y="730" type="line"/>
      <point x="388" y="730" type="line"/>
      <point x="321" y="500" type="line" smooth="yes"/>
      <point x="307" y="452"/>
      <point x="300" y="414"/>
      <point x="299" y="399" type="curve"/>
      <point x="297" y="414"/>
      <point x="290" y="452"/>
      <point x="276" y="500" type="curve" smooth="yes"/>
      <point x="211" y="730" type="line"/>
      <point x="42" y="730" type="line"/>
    </contour>
  </outline>
</glyph>
<glyph name="Z" format="2">
  <advance width="600"/>
  <unicode hex="005A"/>
  <anchor x="300" y="0" name="bottom"/>
  <anchor x="300" y="365" name="center"/>
  <anchor x="300" y="730" name="top"/>
  <outline>
    <contour>
      <point x="75" y="0" type="line"/>
      <point x="525" y="0" type="line"/>
      <point x="525" y="135" type="line"/>
      <point x="245" y="135" type="line"/>
      <point x="514" y="595" type="line"/>
      <point x="514" y="730" type="line"/>
      <point x="83" y="730" type="line"/>
      <point x="83" y="595" type="line"/>
      <point x="343" y="595" type="line"/>
      <point x="75" y="135" type="line"/>
    </contour>
  </outline>
</glyph>
<glyph name="q" format="2">
  <advance width="600"/>
  <unicode hex="0071"/>
  <anchor x="300" y="0" name="bottom"/>
  <anchor x="300" y="550" name="top"/>
  <outline>
    <contour>
      <point x="384" y="-180" type="line"/>
      <point x="534" y="-180" type="line"/>
      <point x="534" y="550" type="line"/>
      <point x="389" y="550" type="line"/>
      <point x="389" y="455" type="line"/>
      <point x="354" y="455" type="line"/>
      <point x="401" y="360" type="line"/>
      <point x="401" y="485"/>
      <point x="340" y="560"/>
      <point x="238" y="560" type="curve" smooth="yes"/>
      <point x="132" y="560"/>
      <point x="60" y="476"/>
      <point x="60" y="345" type="curve" smooth="yes"/>
      <point x="60" y="205" type="line" smooth="yes"/>
      <point x="60" y="74"/>
      <point x="132" y="-10"/>
      <point x="238" y="-10" type="curve" smooth="yes"/>
      <point x="340" y="-10"/>
      <point x="401" y="65"/>
      <point x="401" y="190" type="curve"/>
      <point x="354" y="95" type="line"/>
      <point x="389" y="95" type="line"/>
      <point x="384" y="-30" type="line"/>
    </contour>
    <contour>
      <point x="296" y="120" type="curve" smooth="yes"/>
      <point x="241" y="120"/>
      <point x="210" y="152"/>
      <point x="210" y="210" type="curve" smooth="yes"/>
      <point x="210" y="340" type="line" smooth="yes"/>
      <point x="210" y="398"/>
      <point x="241" y="430"/>
      <point x="296" y="430" type="curve" smooth="yes"/>
      <point x="353" y="430"/>
      <point x="384" y="396"/>
      <point x="384" y="335" type="curve" smooth="yes"/>
      <point x="384" y="215" type="line" smooth="yes"/>
      <point x="384" y="154"/>
      <point x="353" y="120"/>
    </contour>
  </outline>
</glyph>
<glyph name="u" format="2">
  <advance width="600"/>
  <unicode hex="0075"/>
  <anchor x="300" y="0" name="bottom"/>
  <anchor x="410" y="550" name="horn"/>
  <anchor x="345" y="0" name="ogonek"/>
  <anchor x="300" y="550" name="top"/>
  <anchor x="580" y="550" name="topright"/>
  <outline>
    <contour>
      <point x="300" y="-10" type="curve" smooth="yes"/>
      <point x="446" y="-10"/>
      <point x="536" y="74"/>
      <point x="536" y="214" type="curve" smooth="yes"/>
      <point x="536" y="550" type="line"/>
      <point x="386" y="550" type="line"/>
      <point x="386" y="215" type="line" smooth="yes"/>
      <point x="386" y="153"/>
      <point x="355" y="120"/>
      <point x="300" y="120" type="curve" smooth="yes"/>
      <point x="244" y="120"/>
      <point x="214" y="153"/>
      <point x="214" y="215" type="curve" smooth="yes"/>
      <point x="214" y="550" type="line"/>
      <point x="64" y="550" type="line"/>
      <point x="64" y="214" type="line" smooth="yes"/>
      <point x="64" y="75"/>
      <point x="152" y="-10"/>
    </contour>
  </outline>
</glyph>
<glyph name="Aogonek" format="2">
  <advance width="600"/>
  <unicode hex="0104"/>
  <anchor x="300" y="0" name="bottom"/>
  <anchor x="465" y="0" name="ogonek"/>
  <anchor x="300" y="730" name="top"/>
  <outline>
    <contour>
      <point x="464" y="-225" type="curve" smooth="yes"/>
      <point x="572" y="-225" type="line"/>
      <point x="572" y="-120" type="line"/>
      <point x="503" y="-120" type="line" smooth="yes"/>
      <point x="474" y="-120"/>
      <point x="457" y="-103"/>
      <point x="457" y="-83" type="curve" smooth="yes"/>
      <point x="457" y="-66"/>
      <point x="472" y="-42"/>
      <point x="498" y="-18" type="curve" smooth="yes"/>
      <point x="530" y="11" type="line"/>
      <point x="444" y="11" type="line"/>
      <point x="376" y="-19"/>
      <point x="333" y="-68"/>
      <point x="333" y="-115" type="curve" smooth="yes"/>
      <point x="333" y="-180"/>
      <point x="383" y="-225"/>
    </contour>
    <component base="A"/>
  </outline>
</glyph>
<glyph name="aogonek" format="2">
  <advance width="600"/>
  <unicode hex="0105"/>
  <anchor x="305" y="0" name="bottom"/>
  <anchor x="440" y="0" name="ogonek"/>
  <anchor x="305" y="550" name="top"/>
  <outline>
    <contour>
      <point x="482" y="-225" type="curve" smooth="yes"/>
      <point x="590" y="-225" type="line"/>
      <point x="590" y="-120" type="line"/>
      <point x="521" y="-120" type="line" smooth="yes"/>
      <point x="492" y="-120"/>
      <point x="475" y="-103"/>
      <point x="475" y="-83" type="curve" smooth="yes"/>
      <point x="475" y="-66"/>
      <point x="490" y="-42"/>
      <point x="536" y="0" type="curve"/>
      <point x="462" y="11" type="line"/>
      <point x="394" y="-19"/>
      <point x="351" y="-68"/>
      <point x="351" y="-115" type="curve" smooth="yes"/>
      <point x="351" y="-180"/>
      <point x="401" y="-225"/>
    </contour>
    <component base="a"/>
  </outline>
</glyph>
<glyph name="Eogonek" format="2">
  <advance width="600"/>
  <unicode hex="0118"/>
  <anchor x="320" y="0" name="bottom"/>
  <anchor x="430" y="0" name="ogonek"/>
  <anchor x="320" y="730" name="top"/>
  <anchor x="20" y="730" name="topleft"/>
  <outline>
    <contour>
      <point x="426" y="-225" type="curve" smooth="yes"/>
      <point x="534" y="-225" type="line"/>
      <point x="534" y="-120" type="line"/>
      <point x="465" y="-120" type="line" smooth="yes"/>
      <point x="436" y="-120"/>
      <point x="419" y="-103"/>
      <point x="419" y="-83" type="curve" smooth="yes"/>
      <point x="419" y="-66"/>
      <point x="434" y="-42"/>
      <point x="460" y="-18" type="curve" smooth="yes"/>
      <point x="492" y="11" type="line"/>
      <point x="406" y="11" type="line"/>
      <point x="338" y="-19"/>
      <point x="295" y="-68"/>
      <point x="295" y="-115" type="curve" smooth="yes"/>
      <point x="295" y="-180"/>
      <point x="345" y="-225"/>
    </contour>
    <component base="E"/>
  </outline>
</glyph>
<glyph name="Ohorn" format="2">
  <advance width="600"/>
  <unicode hex="01A0"/>
  <anchor x="290" y="730" name="top"/>
  <anchor x="300" y="0" name="bottom"/>
  <anchor x="300" y="365" name="center"/>
  <anchor x="320" y="700" name="horn"/>
  <anchor x="345" y="0" name="ogonek"/>
  <anchor x="20" y="730" name="topleft"/>
  <anchor x="580" y="730" name="topright"/>
  <outline>
    <contour>
      <point x="381" y="600" type="line"/>
      <point x="441" y="600" type="line" smooth="yes"/>
      <point x="528" y="600"/>
      <point x="586" y="654"/>
      <point x="586" y="735" type="curve" smooth="yes"/>
      <point x="586" y="810" type="line"/>
      <point x="466" y="810" type="line"/>
      <point x="466" y="735" type="line" smooth="yes"/>
      <point x="466" y="713"/>
      <point x="453" y="700"/>
      <point x="431" y="700" type="curve" smooth="yes"/>
      <point x="381" y="700" type="line"/>
    </contour>
    <component base="O"/>
  </outline>
</glyph>
<glyph name="macroncomb" format="2">
  <unicode hex="0304"/>
  <anchor x="-300" y="550" name="_top"/>
  <anchor x="-300" y="765" name="top"/>
  <outline>
    <contour>
      <point x="-480" y="655" type="line"/>
      <point x="-120" y="655" type="line"/>
      <point x="-120" y="765" type="line"/>
      <point x="-480" y="765" type="line"/>
    </contour>
  </outline>
</glyph>
<glyph name="dieresistonos" format="2">
  <advance width="600"/>
  <unicode hex="0385"/>
  <outline>
    <contour>
      <point x="234" y="796" type="line"/>
      <point x="354" y="796" type="line"/>
      <point x="440" y="926" type="line"/>
      <point x="310" y="926" type="line"/>
    </contour>
    <contour>
      <point x="422" y="637" type="curve" smooth="yes"/>
      <point x="471" y="637"/>
      <point x="502" y="667"/>
      <point x="502" y="715" type="curve" smooth="yes"/>
      <point x="502" y="763"/>
      <point x="471" y="793"/>
      <point x="422" y="793" type="curve" smooth="yes"/>
      <point x="373" y="793"/>
      <point x="342" y="763"/>
      <point x="342" y="715" type="curve" smooth="yes"/>
      <point x="342" y="667"/>
      <point x="373" y="637"/>
    </contour>
    <contour>
      <point x="178" y="637" type="curve" smooth="yes"/>
      <point x="227" y="637"/>
      <point x="258" y="667"/>
      <point x="258" y="715" type="curve" smooth="yes"/>
      <point x="258" y="763"/>
      <point x="227" y="793"/>
      <point x="178" y="793" type="curve" smooth="yes"/>
      <point x="129" y="793"/>
      <point x="98" y="763"/>
      <point x="98" y="715" type="curve" smooth="yes"/>
      <point x="98" y="667"/>
      <point x="129" y="637"/>
    </contour>
  </outline>
</glyph>
<glyph name="zeta" format="2">
  <advance width="600"/>
  <unicode hex="03B6"/>
  <outline>
    <contour>
      <point x="409" y="-180" type="line"/>
      <point x="559" y="-180" type="line"/>
      <point x="559" y="-34" type="line" smooth="yes"/>
      <point x="559" y="70"/>
      <point x="499" y="130"/>
      <point x="393" y="130" type="curve" smooth="yes"/>
      <point x="283" y="130" type="line" smooth="yes"/>
      <point x="223" y="130"/>
      <point x="191" y="159"/>
      <point x="191" y="212" type="curve" smooth="yes"/>
      <point x="191" y="266"/>
      <point x="221" y="317"/>
      <point x="349" y="438" type="curve" smooth="yes"/>
      <point x="514" y="594" type="line"/>
      <point x="514" y="730" type="line"/>
      <point x="78" y="730" type="line"/>
      <point x="78" y="590" type="line"/>
      <point x="338" y="590" type="line"/>
      <point x="259" y="520" type="line" smooth="yes"/>
      <point x="106" y="384"/>
      <point x="40" y="310"/>
      <point x="40" y="200" type="curve" smooth="yes"/>
      <point x="40" y="70"/>
      <point x="125" y="0"/>
      <point x="283" y="0" type="curve" smooth="yes"/>
      <point x="355" y="0" type="line" smooth="yes"/>
      <point x="389" y="0"/>
      <point x="409" y="-20"/>
      <point x="409" y="-54" type="curve" smooth="yes"/>
    </contour>
  </outline>
</glyph>
<glyph name="theta" format="2">
  <advance width="600"/>
  <unicode hex="03B8"/>
  <outline>
    <contour>
      <point x="300" y="-10" type="curve" smooth="yes"/>
      <point x="447" y="-10"/>
      <point x="540" y="78"/>
      <point x="540" y="210" type="curve" smooth="yes"/>
      <point x="540" y="510" type="line" smooth="yes"/>
      <point x="540" y="642"/>
      <point x="447" y="730"/>
      <point x="300" y="730" type="curve" smooth="yes"/>
      <point x="153" y="730"/>
      <point x="60" y="642"/>
      <point x="60" y="510" type="curve" smooth="yes"/>
      <point x="60" y="210" type="line" smooth="yes"/>
      <point x="60" y="78"/>
      <point x="153" y="-10"/>
    </contour>
    <contour>
      <point x="300" y="120" type="curve" smooth="yes"/>
      <point x="242" y="120"/>
      <point x="210" y="152"/>
      <point x="210" y="210" type="curve" smooth="yes"/>
      <point x="210" y="304" type="line"/>
      <point x="390" y="304" type="line"/>
      <point x="390" y="210" type="line" smooth="yes"/>
      <point x="390" y="152"/>
      <point x="358" y="120"/>
    </contour>
    <contour>
      <point x="210" y="429" type="line"/>
      <point x="210" y="510" type="line" smooth="yes"/>
      <point x="210" y="568"/>
      <point x="242" y="600"/>
      <point x="300" y="600" type="curve" smooth="yes"/>
      <point x="358" y="600"/>
      <point x="390" y="568"/>
      <point x="390" y="510" type="curve" smooth="yes"/>
      <point x="390" y="429" type="line"/>
    </contour>
  </outline>
</glyph>
<glyph name="psi" format="2">
  <advance width="600"/>
  <unicode hex="03C8"/>
  <outline>
    <contour>
      <point x="239" y="-180" type="line"/>
      <point x="361" y="-180" type="line"/>
      <point x="361" y="0" type="line"/>
      <point x="491" y="0"/>
      <point x="566" y="79"/>
      <point x="566" y="207" type="curve" smooth="yes"/>
      <point x="566" y="550" type="line"/>
      <point x="443" y="550" type="line"/>
      <point x="443" y="207" type="line" smooth="yes"/>
      <point x="443" y="152"/>
      <point x="405" y="118"/>
      <point x="352" y="118" type="curve"/>
      <point x="352" y="550" type="line"/>
      <point x="248" y="550" type="line"/>
      <point x="248" y="118" type="line"/>
      <point x="195" y="118"/>
      <point x="157" y="152"/>
      <point x="157" y="207" type="curve" smooth="yes"/>
      <point x="157" y="550" type="line"/>
      <point x="34" y="550" type="line"/>
      <point x="34" y="207" type="line" smooth="yes"/>
      <point x="34" y="78"/>
      <point x="109" y="0"/>
      <point x="239" y="0" type="curve"/>
    </contour>
  </outline>
</glyph>
<glyph name="omega" format="2">
  <advance width="600"/>
  <unicode hex="03C9"/>
  <outline>
    <contour>
      <point x="176" y="-10" type="curve" smooth="yes"/>
      <point x="250" y="-10"/>
      <point x="301" y="46"/>
      <point x="301" y="130" type="curve"/>
      <point x="299" y="130" type="line"/>
      <point x="298" y="46"/>
      <point x="349" y="-10"/>
      <point x="422" y="-10" type="curve" smooth="yes"/>
      <point x="506" y="-10"/>
      <point x="560" y="60"/>
      <point x="560" y="165" type="curve" smooth="yes"/>
      <point x="560" y="335" type="line" smooth="yes"/>
      <point x="560" y="458"/>
      <point x="490" y="543"/>
      <point x="387" y="560" type="curve"/>
      <point x="387" y="420" type="line"/>
      <point x="417" y="411"/>
      <point x="437" y="377"/>
      <point x="437" y="335" type="curve" smooth="yes"/>
      <point x="437" y="152" type="line" smooth="yes"/>
      <point x="437" y="120"/>
      <point x="422" y="102"/>
      <point x="396" y="102" type="curve" smooth="yes"/>
      <point x="368" y="102"/>
      <point x="352" y="120"/>
      <point x="352" y="152" type="curve" smooth="yes"/>
      <point x="352" y="335" type="line"/>
      <point x="248" y="335" type="line"/>
      <point x="248" y="152" type="line" smooth="yes"/>
      <point x="248" y="120"/>
      <point x="232" y="102"/>
      <point x="204" y="102" type="curve" smooth="yes"/>
      <point x="178" y="102"/>
      <point x="163" y="120"/>
      <point x="163" y="152" type="curve" smooth="yes"/>
      <point x="163" y="335" type="line" smooth="yes"/>
      <point x="163" y="377"/>
      <point x="183" y="411"/>
      <point x="213" y="420" type="curve"/>
      <point x="213" y="560" type="line"/>
      <point x="110" y="543"/>
      <point x="40" y="458"/>
      <point x="40" y="335" type="curve" smooth="yes"/>
      <point x="40" y="165" type="line" smooth="yes"/>
      <point x="40" y="60"/>
      <point x="94" y="-10"/>
    </contour>
  </outline>
</glyph>
<glyph name="piSymbol" format="2">
  <advance width="600"/>
  <unicode hex="03D6"/>
  <outline>
    <contour>
      <point x="176" y="-10" type="curve" smooth="yes"/>
      <point x="244" y="-10"/>
      <point x="292" y="37"/>
      <point x="300" y="109" type="curve"/>
      <point x="307" y="37"/>
      <point x="355" y="-10"/>
      <point x="422" y="-10" type="curve" smooth="yes"/>
      <point x="506" y="-10"/>
      <point x="560" y="60"/>
      <point x="560" y="165" type="curve" smooth="yes"/>
      <point x="560" y="275" type="line" smooth="yes"/>
      <point x="560" y="377"/>
      <point x="504" y="440"/>
      <point x="412" y="440" type="curve"/>
      <point x="467" y="404" type="line"/>
      <point x="467" y="422" type="line"/>
      <point x="590" y="422" type="line"/>
      <point x="590" y="550" type="line"/>
      <point x="10" y="550" type="line"/>
      <point x="10" y="422" type="line"/>
      <point x="133" y="422" type="line"/>
      <point x="133" y="402" type="line"/>
      <point x="188" y="440" type="line"/>
      <point x="96" y="440"/>
      <point x="40" y="377"/>
      <point x="40" y="275" type="curve" smooth="yes"/>
      <point x="40" y="165" type="line" smooth="yes"/>
      <point x="40" y="60"/>
      <point x="94" y="-10"/>
    </contour>
    <contour>
      <point x="204" y="102" type="curve" smooth="yes"/>
      <point x="178" y="102"/>
      <point x="163" y="120"/>
      <point x="163" y="152" type="curve" smooth="yes"/>
      <point x="163" y="372" type="line" smooth="yes"/>
      <point x="163" y="404"/>
      <point x="178" y="422"/>
      <point x="204" y="422" type="curve"/>
      <point x="396" y="422" type="line"/>
      <point x="422" y="422"/>
      <point x="437" y="404"/>
      <point x="437" y="372" type="curve" smooth="yes"/>
      <point x="437" y="152" type="line" smooth="yes"/>
      <point x="437" y="120"/>
      <point x="422" y="102"/>
      <point x="396" y="102" type="curve" smooth="yes"/>
      <point x="368" y="102"/>
      <point x="352" y="120"/>
      <point x="352" y="152" type="curve" smooth="yes"/>
      <point x="352" y="325" type="line"/>
      <point x="248" y="325" type="line"/>
      <point x="248" y="152" type="line" smooth="yes"/>
      <point x="248" y="120"/>
      <point x="232" y="102"/>
    </contour>
  </outline>
</glyph>
<glyph name="ve-cy" format="2">
  <advance width="600"/>
  <unicode hex="0432"/>
  <outline>
    <contour>
      <point x="66" y="0" type="line"/>
      <point x="338" y="0" type="line" smooth="yes"/>
      <point x="467" y="0"/>
      <point x="549" y="62"/>
      <point x="549" y="158" type="curve" smooth="yes"/>
      <point x="549" y="237"/>
      <point x="494" y="288"/>
      <point x="408" y="290" type="curve"/>
      <point x="408" y="297" type="line"/>
      <point x="483" y="299"/>
      <point x="530" y="341"/>
      <point x="530" y="407" type="curve" smooth="yes"/>
      <point x="530" y="494"/>
      <point x="449" y="550"/>
      <point x="320" y="550" type="curve" smooth="yes"/>
      <point x="66" y="550" type="line"/>
    </contour>
    <contour>
      <point x="213" y="105" type="line"/>
      <point x="213" y="239" type="line"/>
      <point x="325" y="239" type="line" smooth="yes"/>
      <point x="374" y="239"/>
      <point x="403" y="214"/>
      <point x="403" y="172" type="curve" smooth="yes"/>
      <point x="403" y="130"/>
      <point x="374" y="105"/>
      <point x="325" y="105" type="curve" smooth="yes"/>
    </contour>
    <contour>
      <point x="213" y="327" type="line"/>
      <point x="213" y="445" type="line"/>
      <point x="315" y="445" type="line" smooth="yes"/>
      <point x="359" y="445"/>
      <point x="385" y="423"/>
      <point x="385" y="386" type="curve" smooth="yes"/>
      <point x="385" y="349"/>
      <point x="359" y="327"/>
      <point x="315" y="327" type="curve" smooth="yes"/>
    </contour>
  </outline>
</glyph>
<glyph name="de-cy" format="2">
  <advance width="600"/>
  <unicode hex="0434"/>
  <outline>
    <contour>
      <point x="22" y="-140" type="line"/>
      <point x="162" y="-140" type="line"/>
      <point x="162" y="0" type="line"/>
      <point x="438" y="0" type="line"/>
      <point x="438" y="-140" type="line"/>
      <point x="578" y="-140" type="line"/>
      <point x="578" y="127" type="line"/>
      <point x="518" y="127" type="line"/>
      <point x="518" y="550" type="line"/>
      <point x="113" y="550" type="line"/>
      <point x="108" y="290" type="line" smooth="yes"/>
      <point x="107" y="209"/>
      <point x="76" y="149"/>
      <point x="53" y="127" type="curve"/>
      <point x="22" y="127" type="line"/>
    </contour>
    <contour>
      <point x="202" y="127" type="line"/>
      <point x="221" y="152"/>
      <point x="247" y="213"/>
      <point x="248" y="291" type="curve" smooth="yes"/>
      <point x="251" y="421" type="line"/>
      <point x="378" y="421" type="line"/>
      <point x="378" y="127" type="line"/>
    </contour>
  </outline>
</glyph>
<glyph name="el-cy" format="2">
  <advance width="600"/>
  <unicode hex="043B"/>
  <outline>
    <contour>
      <point x="21" y="-7" type="line"/>
      <point x="61" y="-7" type="line" smooth="yes"/>
      <point x="179" y="-7"/>
      <point x="259" y="75"/>
      <point x="261" y="198" type="curve" smooth="yes"/>
      <point x="265" y="414" type="line"/>
      <point x="384" y="414" type="line"/>
      <point x="384" y="0" type="line"/>
      <point x="534" y="0" type="line"/>
      <point x="534" y="550" type="line"/>
      <point x="118" y="550" type="line"/>
      <point x="112" y="208" type="line" smooth="yes"/>
      <point x="111" y="160"/>
      <point x="86" y="128"/>
      <point x="51" y="128" type="curve" smooth="yes"/>
      <point x="21" y="128" type="line"/>
    </contour>
  </outline>
</glyph>
<glyph name="che-cy" format="2">
  <advance width="600"/>
  <unicode hex="0447"/>
  <outline>
    <contour>
      <point x="380" y="0" type="line"/>
      <point x="530" y="0" type="line"/>
      <point x="530" y="550" type="line"/>
      <point x="380" y="550" type="line"/>
      <point x="380" y="310" type="line"/>
      <point x="362" y="304"/>
      <point x="330" y="300"/>
      <point x="300" y="300" type="curve" smooth="yes"/>
      <point x="230" y="300"/>
      <point x="200" y="324"/>
      <point x="200" y="380" type="curve" smooth="yes"/>
      <point x="200" y="550" type="line"/>
      <point x="50" y="550" type="line"/>
      <point x="50" y="370" type="line" smooth="yes"/>
      <point x="50" y="231"/>
      <point x="123" y="165"/>
      <point x="278" y="165" type="curve" smooth="yes"/>
      <point x="318" y="165"/>
      <point x="356" y="169"/>
      <point x="380" y="175" type="curve"/>
    </contour>
  </outline>
</glyph>
<glyph name="hardsign-cy" format="2">
  <advance width="600"/>
  <unicode hex="044A"/>
  <outline>
    <contour>
      <point x="120" y="0" type="line"/>
      <point x="345" y="0" type="line" smooth="yes"/>
      <point x="480" y="0"/>
      <point x="565" y="73"/>
      <point x="565" y="191" type="curve" smooth="yes"/>
      <point x="565" y="312"/>
      <point x="482" y="385"/>
      <point x="344" y="385" type="curve" smooth="yes"/>
      <point x="270" y="385" type="line"/>
      <point x="270" y="550" type="line"/>
      <point x="0" y="550" type="line"/>
      <point x="0" y="410" type="line"/>
      <point x="120" y="410" type="line"/>
    </contour>
    <contour>
      <point x="270" y="130" type="line"/>
      <point x="270" y="255" type="line"/>
      <point x="335" y="255" type="line" smooth="yes"/>
      <point x="385" y="255"/>
      <point x="414" y="232"/>
      <point x="414" y="193" type="curve" smooth="yes"/>
      <point x="414" y="153"/>
      <point x="385" y="130"/>
      <point x="335" y="130" type="curve" smooth="yes"/>
    </contour>
  </outline>
</glyph>
<glyph name="ia-cy" format="2">
  <advance width="600"/>
  <unicode hex="044F"/>
  <outline>
    <contour>
      <point x="51" y="0" type="line"/>
      <point x="220" y="0" type="line"/>
      <point x="317" y="178" type="line"/>
      <point x="384" y="178" type="line"/>
      <point x="384" y="0" type="line"/>
      <point x="534" y="0" type="line"/>
      <point x="534" y="550" type="line"/>
      <point x="288" y="550" type="line" smooth="yes"/>
      <point x="144" y="550"/>
      <point x="58" y="478"/>
      <point x="58" y="357" type="curve" smooth="yes"/>
      <point x="58" y="279"/>
      <point x="100" y="219"/>
      <point x="168" y="193" type="curve"/>
    </contour>
    <contour>
      <point x="297" y="288" type="line" smooth="yes"/>
      <point x="240" y="288"/>
      <point x="207" y="314"/>
      <point x="207" y="359" type="curve" smooth="yes"/>
      <point x="207" y="404"/>
      <point x="241" y="431"/>
      <point x="297" y="431" type="curve" smooth="yes"/>
      <point x="384" y="431" type="line"/>
      <point x="384" y="288" type="line"/>
    </contour>
  </outline>
</glyph>
<glyph name="ghestroke-cy" format="2">
  <advance width="600"/>
  <unicode hex="0493"/>
  <anchor x="330" y="550" name="top"/>
  <outline>
    <contour>
      <point x="45" y="185" type="line"/>
      <point x="425" y="185" type="line"/>
      <point x="425" y="310" type="line"/>
      <point x="45" y="310" type="line"/>
    </contour>
    <component base="ge-cy" xOffset="15"/>
  </outline>
</glyph>
<glyph name="quotesinglbase" format="2">
  <advance width="600"/>
  <unicode hex="201A"/>
  <outline>
    <contour>
      <point x="205" y="-160" type="curve"/>
      <point x="345" y="-160" type="line"/>
      <point x="393" y="-80"/>
      <point x="410" y="-38"/>
      <point x="410" y="4" type="curve" smooth="yes"/>
      <point x="410" y="103"/>
      <point x="348" y="159"/>
      <point x="240" y="159" type="curve" smooth="yes"/>
      <point x="195" y="159" type="line"/>
      <point x="195" y="29" type="line"/>
      <point x="230" y="29" type="line" smooth="yes"/>
      <point x="259" y="29"/>
      <point x="275" y="15"/>
      <point x="275" y="-10" type="curve" smooth="yes"/>
      <point x="275" y="-38"/>
      <point x="261" y="-69"/>
    </contour>
  </outline>
</glyph>
<glyph name="overline" format="2">
  <advance width="600"/>
  <unicode hex="203E"/>
  <outline>
    <contour>
      <point x="-10" y="690" type="line"/>
      <point x="610" y="690" type="line"/>
      <point x="610" y="830" type="line"/>
      <point x="-10" y="830" type="line"/>
    </contour>
  </outline>
</glyph>
<glyph name="trademark" format="2">
  <advance width="600"/>
  <unicode hex="2122"/>
  <outline>
    <contour>
      <point x="110" y="370" type="line"/>
      <point x="180" y="370" type="line"/>
      <point x="180" y="665" type="line"/>
      <point x="280" y="665" type="line"/>
      <point x="280" y="730" type="line"/>
      <point x="15" y="730" type="line"/>
      <point x="15" y="665" type="line"/>
      <point x="110" y="665" type="line"/>
    </contour>
    <contour>
      <point x="304" y="370" type="line"/>
      <point x="369" y="370" type="line"/>
      <point x="369" y="531" type="line" smooth="yes"/>
      <point x="369" y="571"/>
      <point x="361" y="648"/>
      <point x="355" y="695" type="curve"/>
      <point x="361" y="670"/>
      <point x="372" y="624"/>
      <point x="383" y="590" type="curve" smooth="yes"/>
      <point x="406" y="517" type="line"/>
      <point x="466" y="517" type="line"/>
      <point x="487" y="590" type="line" smooth="yes"/>
      <point x="496" y="624"/>
      <point x="508" y="673"/>
      <point x="514" y="700" type="curve"/>
      <point x="508" y="646"/>
      <point x="500" y="562"/>
      <point x="500" y="525" type="curve" smooth="yes"/>
      <point x="500" y="370" type="line"/>
      <point x="565" y="370" type="line"/>
      <point x="565" y="730" type="line"/>
      <point x="480" y="730" type="line"/>
      <point x="452" y="628" type="line" smooth="yes"/>
      <point x="447" y="608"/>
      <point x="440" y="576"/>
      <point x="437" y="557" type="curve"/>
      <point x="433" y="576"/>
      <point x="426" y="608"/>
      <point x="420" y="628" type="curve" smooth="yes"/>
      <point x="391" y="730" type="line"/>
      <point x="304" y="730" type="line"/>
    </contour>
  </outline>
</glyph>
<glyph name="downArrow" format="2">
  <advance width="600"/>
  <unicode hex="2193"/>
  <outline>
    <contour>
      <point x="299" y="-10" type="line"/>
      <point x="590" y="237" type="line"/>
      <point x="590" y="342" type="line"/>
      <point x="405" y="184" type="line" smooth="yes"/>
      <point x="376" y="159"/>
      <point x="356" y="139"/>
      <point x="350" y="130" type="curve"/>
      <point x="340" y="130" type="line"/>
      <point x="342" y="147"/>
      <point x="345" y="181"/>
      <point x="345" y="210" type="curve" smooth="yes"/>
      <point x="345" y="730" type="line"/>
      <point x="255" y="730" type="line"/>
      <point x="255" y="210" type="line" smooth="yes"/>
      <point x="255" y="181"/>
      <point x="258" y="147"/>
      <point x="260" y="130" type="curve"/>
      <point x="250" y="130" type="line"/>
      <point x="244" y="138"/>
      <point x="225" y="158"/>
      <point x="196" y="183" type="curve" smooth="yes"/>
      <point x="10" y="341" type="line"/>
      <point x="10" y="236" type="line"/>
    </contour>
  </outline>
</glyph>
<glyph name="northEastArrow" format="2">
  <advance width="600"/>
  <unicode hex="2197"/>
  <outline>
    <contour>
      <point x="69" y="76" type="line"/>
      <point x="424" y="434" type="line" smooth="yes"/>
      <point x="443" y="453"/>
      <point x="464" y="478"/>
      <point x="474" y="492" type="curve"/>
      <point x="481" y="490" type="line"/>
      <point x="478" y="472"/>
      <point x="475" y="437"/>
      <point x="475" y="404" type="curve" smooth="yes"/>
      <point x="475" y="205" type="line"/>
      <point x="555" y="205" type="line"/>
      <point x="555" y="620" type="line"/>
      <point x="140" y="620" type="line"/>
      <point x="140" y="542" type="line"/>
      <point x="335" y="542" type="line" smooth="yes"/>
      <point x="368" y="542"/>
      <point x="400" y="545"/>
      <point x="415" y="547" type="curve"/>
      <point x="416" y="540" type="line"/>
      <point x="404" y="531"/>
      <point x="381" y="512"/>
      <point x="363" y="494" type="curve" smooth="yes"/>
      <point x="10" y="138" type="line"/>
    </contour>
  </outline>
</glyph>
<glyph name="rightWhiteArrow" format="2">
  <advance width="600"/>
  <unicode hex="21E8"/>
  <outline>
    <contour>
      <point x="329" y="-10" type="line"/>
      <point x="660" y="275" type="line"/>
      <point x="329" y="560" type="line"/>
      <point x="329" y="432" type="line"/>
      <point x="1" y="432" type="line" smooth="yes"/>
      <point x="-16" y="432"/>
      <point x="-30" y="418"/>
      <point x="-30" y="401" type="curve" smooth="yes"/>
      <point x="-30" y="151" type="line" smooth="yes"/>
      <point x="-30" y="134"/>
      <point x="-16" y="120"/>
      <point x="1" y="120" type="curve" smooth="yes"/>
      <point x="329" y="120" type="line"/>
    </contour>
    <contour>
      <point x="394" y="135" type="line"/>
      <point x="394" y="186" type="line"/>
      <point x="40" y="186" type="line"/>
      <point x="40" y="366" type="line"/>
      <point x="394" y="366" type="line"/>
      <point x="394" y="415" type="line"/>
      <point x="558" y="275" type="line"/>
    </contour>
  </outline>
</glyph>
<glyph name="endofproof" format="2">
  <advance width="600"/>
  <unicode hex="220E"/>
  <outline>
    <contour>
      <point x="120" y="0" type="line"/>
      <point x="480" y="0" type="line"/>
      <point x="480" y="510" type="line"/>
      <point x="120" y="510" type="line"/>
    </contour>
  </outline>
</glyph>
<glyph name="logicaland" format="2">
  <advance width="600"/>
  <unicode hex="2227"/>
  <outline>
    <contour>
      <point x="27" y="50" type="line"/>
      <point x="180" y="50" type="line"/>
      <point x="271" y="310" type="line" smooth="yes"/>
      <point x="283" y="346"/>
      <point x="294" y="395"/>
      <point x="298" y="423" type="curve"/>
      <point x="302" y="396"/>
      <point x="313" y="346"/>
      <point x="326" y="309" type="curve" smooth="yes"/>
      <point x="418" y="50" type="line"/>
      <point x="573" y="50" type="line"/>
      <point x="393" y="550" type="line"/>
      <point x="205" y="550" type="line"/>
    </contour>
  </outline>
</glyph>
<glyph name="between" format="2">
  <advance width="600"/>
  <unicode hex="226C"/>
  <outline>
    <contour>
      <point x="168" y="-55" type="line"/>
      <point x="383" y="-18"/>
      <point x="454" y="106"/>
      <point x="454" y="265" type="curve" smooth="yes"/>
      <point x="454" y="285" type="line" smooth="yes"/>
      <point x="454" y="444"/>
      <point x="383" y="568"/>
      <point x="168" y="605" type="curve"/>
      <point x="168" y="560" type="line"/>
      <point x="350" y="523"/>
      <point x="404" y="417"/>
      <point x="404" y="285" type="curve" smooth="yes"/>
      <point x="404" y="265" type="line" smooth="yes"/>
      <point x="404" y="133"/>
      <point x="350" y="27"/>
      <point x="168" y="-10" type="curve"/>
    </contour>
    <contour>
      <point x="444" y="-55" type="curve"/>
      <point x="444" y="-10" type="line"/>
      <point x="262" y="27"/>
      <point x="208" y="133"/>
      <point x="208" y="265" type="curve" smooth="yes"/>
      <point x="208" y="285" type="line" smooth="yes"/>
      <point x="208" y="417"/>
      <point x="262" y="523"/>
      <point x="444" y="560" type="curve"/>
      <point x="444" y="605" type="line"/>
      <point x="229" y="568"/>
      <point x="158" y="444"/>
      <point x="158" y="285" type="curve" smooth="yes"/>
      <point x="158" y="265" type="line" smooth="yes"/>
      <point x="158" y="106"/>
      <point x="229" y="-18"/>
    </contour>
  </outline>
</glyph>
<glyph name="notgreater" format="2">
  <advance width="600"/>
  <unicode hex="226F"/>
  <outline>
    <contour>
      <point x="107" y="-69" type="line"/>
      <point x="198" y="-69" type="line"/>
      <point x="473" y="730" type="line"/>
      <point x="382" y="730" type="line"/>
    </contour>
    <component base="greater"/>
  </outline>
</glyph>
<glyph name="greaterorequivalent" format="2">
  <advance width="600"/>
  <unicode hex="2273"/>
  <outline>
    <contour>
      <point x="65" y="0" type="line"/>
      <point x="185" y="0" type="line"/>
      <point x="185" y="15" type="line" smooth="yes"/>
      <point x="185" y="41"/>
      <point x="199" y="55"/>
      <point x="225" y="55" type="curve" smooth="yes"/>
      <point x="274" y="55"/>
      <point x="295" y="-5"/>
      <point x="380" y="-5" type="curve" smooth="yes"/>
      <point x="474" y="-5"/>
      <point x="535" y="56"/>
      <point x="535" y="150" type="curve" smooth="yes"/>
      <point x="535" y="165" type="line"/>
      <point x="415" y="165" type="line"/>
      <point x="415" y="150" type="line" smooth="yes"/>
      <point x="415" y="124"/>
      <point x="401" y="110"/>
      <point x="375" y="110" type="curve" smooth="yes"/>
      <point x="326" y="110"/>
      <point x="305" y="170"/>
      <point x="220" y="170" type="curve" smooth="yes"/>
      <point x="126" y="170"/>
      <point x="65" y="109"/>
      <point x="65" y="15" type="curve" smooth="yes"/>
    </contour>
    <component base="greater" yOffset="125"/>
  </outline>
</glyph>
<glyph name="succeeds" format="2">
  <advance width="600"/>
  <unicode hex="227B"/>
  <outline>
    <contour>
      <point x="70" y="55" type="curve"/>
      <point x="200" y="55" type="line"/>
      <point x="215" y="179"/>
      <point x="344" y="250"/>
      <point x="555" y="250" type="curve"/>
      <point x="555" y="410" type="line"/>
      <point x="346" y="410"/>
      <point x="217" y="479"/>
      <point x="200" y="600" type="curve"/>
      <point x="70" y="600" type="line"/>
      <point x="86" y="436"/>
      <point x="228" y="340"/>
      <point x="461" y="336" type="curve"/>
      <point x="461" y="338" type="line"/>
      <point x="228" y="332"/>
      <point x="86" y="229"/>
    </contour>
  </outline>
</glyph>
<glyph name="precedesorequalto" format="2">
  <advance width="600"/>
  <unicode hex="227C"/>
  <outline>
    <contour>
      <point x="45" y="0" type="line"/>
      <point x="530" y="0" type="line"/>
      <point x="530" y="140" type="line"/>
      <point x="45" y="140" type="line"/>
    </contour>
    <component base="precedes" yOffset="125"/>
  </outline>
</glyph>
<glyph name="squareimageof" format="2">
  <advance width="600"/>
  <unicode hex="228F"/>
  <outline>
    <contour>
      <point x="25" y="75" type="line"/>
      <point x="575" y="75" type="line"/>
      <point x="575" y="215" type="line"/>
      <point x="175" y="215" type="line"/>
      <point x="175" y="445" type="line"/>
      <point x="575" y="445" type="line"/>
      <point x="575" y="585" type="line"/>
      <point x="25" y="585" type="line"/>
    </contour>
  </outline>
</glyph>
<glyph name="leftnormalfactorsemidirectproduct" format="2">
  <advance width="600"/>
  <unicode hex="22C9"/>
  <outline>
    <contour>
      <point x="50" y="163" type="line"/>
      <point x="50" y="553" type="line"/>
      <point x="263" y="359" type="line"/>
    </contour>
    <contour>
      <point x="600" y="117" type="line"/>
      <point x="336" y="360" type="line"/>
      <point x="600" y="600" type="line"/>
      <point x="567" y="636" type="line"/>
      <point x="300" y="394" type="line"/>
      <point x="0" y="667" type="line"/>
      <point x="0" y="50" type="line"/>
      <point x="299" y="325" type="line"/>
      <point x="566" y="79" type="line"/>
    </contour>
  </outline>
</glyph>
<glyph name="downArrowHead" format="2">
  <advance width="600"/>
  <unicode hex="2304"/>
  <outline>
    <contour>
      <point x="299" y="-10" type="line"/>
      <point x="590" y="237" type="line"/>
      <point x="590" y="342" type="line"/>
      <point x="305" y="92" type="line"/>
      <point x="10" y="341" type="line"/>
      <point x="10" y="236" type="line"/>
    </contour>
  </outline>
</glyph>
<glyph name="projective" format="2">
  <advance width="600"/>
  <unicode hex="2305"/>
  <outline>
    <contour>
      <point x="80" y="430" type="line"/>
      <point x="520" y="430" type="line"/>
      <point x="520" y="550" type="line"/>
      <point x="80" y="550" type="line"/>
    </contour>
    <component base="control" yOffset="-180"/>
  </outline>
</glyph>
<glyph name="leftFloor" format="2">
  <advance width="600"/>
  <unicode hex="230A"/>
  <outline>
    <contour>
      <point x="170" y="-110" type="line"/>
      <point x="475" y="-110" type="line"/>
      <point x="475" y="30" type="line"/>
      <point x="320" y="30" type="line"/>
      <point x="320" y="830" type="line"/>
      <point x="170" y="830" type="line"/>
    </contour>
  </outline>
</glyph>
<glyph name="leftcurlybracketlowerhook" format="2">
  <advance width="600"/>
  <unicode hex="23A9"/>
  <outline>
    <contour>
      <point x="405" y="-111" type="curve" smooth="yes"/>
      <point x="490" y="-111" type="line"/>
      <point x="490" y="29" type="line"/>
      <point x="435" y="29" type="line" smooth="yes"/>
      <point x="399" y="29"/>
      <point x="375" y="53"/>
      <point x="375" y="89" type="curve" smooth="yes"/>
      <point x="375" y="1020" type="line"/>
      <point x="225" y="1020" type="line"/>
      <point x="225" y="74" type="line" smooth="yes"/>
      <point x="225" y="-38"/>
      <point x="296" y="-111"/>
    </contour>
  </outline>
</glyph>
<glyph name="boxLightQuadrupleDashVertical" format="2">
  <advance width="600"/>
  <unicode hex="250A"/>
  <outline>
    <contour>
      <point x="250" y="720" type="line"/>
      <point x="350" y="720" type="line"/>
      <point x="350" y="935" type="line"/>
      <point x="250" y="935" type="line"/>
    </contour>
    <contour>
      <point x="250" y="-195" type="line"/>
      <point x="350" y="-195" type="line"/>
      <point x="350" y="20" type="line"/>
      <point x="250" y="20" type="line"/>
    </contour>
    <contour>
      <point x="250" y="110" type="line"/>
      <point x="350" y="110" type="line"/>
      <point x="350" y="325" type="line"/>
      <point x="250" y="325" type="line"/>
    </contour>
    <contour>
      <point x="250" y="415" type="line"/>
      <point x="350" y="415" type="line"/>
      <point x="350" y="630" type="line"/>
      <point x="250" y="630" type="line"/>
    </contour>
  </outline>
</glyph>
<glyph name="boxLeftHeavyAndRightUpLight" format="2">
  <advance width="600"/>
  <unicode hex="2535"/>
  <outline>
    <contour>
      <point x="-20" y="270" type="line"/>
      <point x="350" y="270" type="line"/>
      <point x="350" y="320" type="line"/>
      <point x="620" y="320" type="line"/>
      <point x="620" y="420" type="line"/>
      <point x="350" y="420" type="line"/>
      <point x="350" y="1120" type="line"/>
      <point x="250" y="1120" type="line"/>
      <point x="250" y="470" type="line"/>
      <point x="-20" y="470" type="line"/>
    </contour>
  </outline>
</glyph>
<glyph name="boxDoubleVerticalAndLeft" format="2">
  <advance width="600"/>
  <unicode hex="2563"/>
  <outline>
    <contour>
      <point x="150" y="-400" type="line"/>
      <point x="250" y="-400" type="line"/>
      <point x="250" y="320" type="line"/>
      <point x="-20" y="320" type="line"/>
      <point x="-20" y="220" type="line"/>
      <point x="150" y="220" type="line"/>
    </contour>
    <contour>
      <point x="350" y="-400" type="line"/>
      <point x="450" y="-400" type="line"/>
      <point x="450" y="1120" type="line"/>
      <point x="350" y="1120" type="line"/>
    </contour>
    <contour>
      <point x="-20" y="420" type="line"/>
      <point x="250" y="420" type="line"/>
      <point x="250" y="1120" type="line"/>
      <point x="150" y="1120" type="line"/>
      <point x="150" y="520" type="line"/>
      <point x="-20" y="520" type="line"/>
    </contour>
  </outline>
</glyph>
<glyph name="boxVerticalDoubleAndHorizontalSingle" format="2">
  <advance width="600"/>
  <unicode hex="256B"/>
  <outline>
    <contour>
      <point x="150" y="-400" type="line"/>
      <point x="250" y="-400" type="line"/>
      <point x="250" y="320" type="line"/>
      <point x="350" y="320" type="line"/>
      <point x="350" y="-400" type="line"/>
      <point x="450" y="-400" type="line"/>
      <point x="450" y="320" type="line"/>
      <point x="620" y="320" type="line"/>
      <point x="620" y="420" type="line"/>
      <point x="450" y="420" type="line"/>
      <point x="450" y="1120" type="line"/>
      <point x="350" y="1120" type="line"/>
      <point x="350" y="420" type="line"/>
      <point x="250" y="420" type="line"/>
      <point x="250" y="1120" type="line"/>
      <point x="150" y="1120" type="line"/>
      <point x="150" y="420" type="line"/>
      <point x="-20" y="420" type="line"/>
      <point x="-20" y="320" type="line"/>
      <point x="150" y="320" type="line"/>
    </contour>
  </outline>
</glyph>
<glyph name="boxLightArcUpAndRight" format="2">
  <advance width="600"/>
  <unicode hex="2570"/>
  <outline>
    <contour>
      <point x="585" y="320" type="curve" smooth="yes"/>
      <point x="620" y="320" type="line"/>
      <point x="620" y="420" type="line"/>
      <point x="585" y="420" type="line" smooth="yes"/>
      <point x="443" y="420"/>
      <point x="350" y="514"/>
      <point x="350" y="660" type="curve" smooth="yes"/>
      <point x="350" y="1120" type="line"/>
      <point x="250" y="1120" type="line"/>
      <point x="250" y="660" type="line" smooth="yes"/>
      <point x="250" y="454"/>
      <point x="383" y="320"/>
    </contour>
  </outline>
</glyph>
<glyph name="bullseye" format="2">
  <advance width="600"/>
  <unicode hex="25CE"/>
  <outline>
    <contour>
      <point x="300" y="50" type="curve" smooth="yes"/>
      <point x="477" y="50"/>
      <point x="610" y="183"/>
      <point x="610" y="360" type="curve" smooth="yes"/>
      <point x="610" y="537"/>
      <point x="477" y="670"/>
      <point x="300" y="670" type="curve" smooth="yes"/>
      <point x="123" y="670"/>
      <point x="-10" y="537"/>
      <point x="-10" y="360" type="curve" smooth="yes"/>
      <point x="-10" y="183"/>
      <point x="123" y="50"/>
    </contour>
    <contour>
      <point x="300" y="100" type="curve" smooth="yes"/>
      <point x="152" y="100"/>
      <point x="40" y="212"/>
      <point x="40" y="360" type="curve" smooth="yes"/>
      <point x="40" y="508"/>
      <point x="152" y="620"/>
      <point x="300" y="620" type="curve" smooth="yes"/>
      <point x="448" y="620"/>
      <point x="560" y="508"/>
      <point x="560" y="360" type="curve" smooth="yes"/>
      <point x="560" y="212"/>
      <point x="448" y="100"/>
    </contour>
    <contour>
      <point x="300" y="163" type="curve" smooth="yes"/>
      <point x="410" y="163"/>
      <point x="497" y="250"/>
      <point x="497" y="360" type="curve" smooth="yes"/>
      <point x="497" y="473"/>
      <point x="413" y="557"/>
      <point x="300" y="557" type="curve" smooth="yes"/>
      <point x="190" y="557"/>
      <point x="103" y="470"/>
      <point x="103" y="360" type="curve" smooth="yes"/>
      <point x="103" y="250"/>
      <point x="190" y="163"/>
    </contour>
    <contour>
      <point x="300" y="210" type="curve" smooth="yes"/>
      <point x="214" y="210"/>
      <point x="150" y="274"/>
      <point x="150" y="360" type="curve" smooth="yes"/>
      <point x="150" y="446"/>
      <point x="214" y="510"/>
      <point x="300" y="510" type="curve" smooth="yes"/>
      <point x="386" y="510"/>
      <point x="450" y="446"/>
      <point x="450" y="360" type="curve" smooth="yes"/>
      <point x="450" y="274"/>
      <point x="386" y="210"/>
    </contour>
  </outline>
</glyph>
<glyph name="lowerRightQuadrantWhiteCircle" format="2">
  <advance width="600"/>
  <unicode hex="25F6"/>
  <outline>
    <contour>
      <point x="300" y="50" type="curve" smooth="yes"/>
      <point x="477" y="50"/>
      <point x="610" y="183"/>
      <point x="610" y="360" type="curve" smooth="yes"/>
      <point x="610" y="537"/>
      <point x="477" y="670"/>
      <point x="300" y="670" type="curve" smooth="yes"/>
      <point x="123" y="670"/>
      <point x="-10" y="537"/>
      <point x="-10" y="360" type="curve" smooth="yes"/>
      <point x="-10" y="183"/>
      <point x="123" y="50"/>
    </contour>
    <contour>
      <point x="300" y="100" type="curve" smooth="yes"/>
      <point x="152" y="100"/>
      <point x="40" y="212"/>
      <point x="40" y="360" type="curve" smooth="yes"/>
      <point x="40" y="508"/>
      <point x="152" y="620"/>
      <point x="300" y="620" type="curve" smooth="yes"/>
      <point x="448" y="620"/>
      <point x="560" y="508"/>
      <point x="560" y="360" type="curve" smooth="yes"/>
      <point x="560" y="212"/>
      <point x="448" y="100"/>
    </contour>
    <contour>
      <point x="275" y="85" type="line"/>
      <point x="325" y="85" type="line"/>
      <point x="325" y="335" type="line"/>
      <point x="580" y="335" type="line"/>
      <point x="580" y="385" type="line"/>
      <point x="275" y="385" type="line"/>
    </contour>
  </outline>
</glyph>
<glyph name="rightlongArrow" format="2">
  <advance width="600"/>
  <unicode hex="27F6"/>
  <outline>
    <contour>
      <point x="331" y="75" type="line"/>
      <point x="434" y="75" type="line"/>
      <point x="640" y="330" type="line"/>
      <point x="433" y="585" type="line"/>
      <point x="328" y="585" type="line"/>
      <point x="465" y="421" type="line" smooth="yes"/>
      <point x="482" y="401"/>
      <point x="501" y="382"/>
      <point x="510" y="374" type="curve"/>
      <point x="510" y="365" type="line"/>
      <point x="493" y="367"/>
      <point x="462" y="370"/>
      <point x="440" y="370" type="curve" smooth="yes"/>
      <point x="-40" y="370" type="line"/>
      <point x="-40" y="290" type="line"/>
      <point x="440" y="290" type="line" smooth="yes"/>
      <point x="462" y="290"/>
      <point x="493" y="292"/>
      <point x="510" y="294" type="curve"/>
      <point x="510" y="285" type="line"/>
      <point x="498" y="276"/>
      <point x="478" y="256"/>
      <point x="465" y="240" type="curve" smooth="yes"/>
    </contour>
  </outline>
</glyph>
<glyph name="C.half" format="2">
  <advance width="400"/>
  <outline>
    <contour>
      <point x="207" y="-5" type="curve" smooth="yes"/>
      <point x="299" y="-5"/>
      <point x="359" y="45"/>
      <point x="378" y="118" type="curve"/>
      <point x="290" y="118" type="line"/>
      <point x="279" y="91"/>
      <point x="246" y="73"/>
      <point x="207" y="73" type="curve" smooth="yes"/>
      <point x="149" y="73"/>
      <point x="110" y="111"/>
      <point x="110" y="167" type="curve" smooth="yes"/>
      <point x="110" y="223"/>
      <point x="149" y="262"/>
      <point x="207" y="262" type="curve" smooth="yes"/>
      <point x="246" y="262"/>
      <point x="279" y="244"/>
      <point x="290" y="217" type="curve"/>
      <point x="378" y="217" type="line"/>
      <point x="359" y="290"/>
      <point x="299" y="340"/>
      <point x="207" y="340" type="curve" smooth="yes"/>
      <point x="97" y="340"/>
      <point x="22" y="270"/>
      <point x="22" y="167" type="curve" smooth="yes"/>
      <point x="22" y="65"/>
      <point x="97" y="-5"/>
    </contour>
  </outline>
</glyph>
<glyph name="F.half" format="2">
  <advance width="400"/>
  <outline>
    <contour>
      <point x="48" y="0" type="line"/>
      <point x="134" y="0" type="line"/>
      <point x="134" y="112" type="line"/>
      <point x="326" y="112" type="line"/>
      <point x="326" y="192" type="line"/>
      <point x="134" y="192" type="line"/>
      <point x="134" y="255" type="line"/>
      <point x="356" y="255" type="line"/>
      <point x="356" y="335" type="line"/>
      <point x="48" y="335" type="line"/>
    </contour>
  </outline>
</glyph>
<glyph name="G.half" format="2">
  <advance width="400"/>
  <outline>
    <contour>
      <point x="22" y="167" type="curve" smooth="yes"/>
      <point x="22" y="69"/>
      <point x="101" y="-5"/>
      <point x="207" y="-5" type="curve" smooth="yes"/>
      <point x="308" y="-5"/>
      <point x="384" y="69"/>
      <point x="384" y="167" type="curve" smooth="yes"/>
      <point x="384" y="181" type="line"/>
      <point x="207" y="181" type="line"/>
      <point x="207" y="114" type="line"/>
      <point x="289" y="114" type="line"/>
      <point x="274" y="87"/>
      <point x="241" y="73"/>
      <point x="207" y="73" type="curve" smooth="yes"/>
      <point x="152" y="73"/>
      <point x="110" y="113"/>
      <point x="110" y="167" type="curve" smooth="yes"/>
      <point x="110" y="221"/>
      <point x="152" y="262"/>
      <point x="207" y="262" type="curve" smooth="yes"/>
      <point x="242" y="262"/>
      <point x="276" y="251"/>
      <point x="291" y="234" type="curve"/>
      <point x="379" y="234" type="line"/>
      <point x="358" y="295"/>
      <point x="284" y="340"/>
      <point x="207" y="340" type="curve" smooth="yes"/>
      <point x="101" y="340"/>
      <point x="22" y="266"/>
    </contour>
  </outline>
</glyph>
<glyph name="T.half" format="2">
  <advance width="400"/>
  <outline>
    <contour>
      <point x="157" y="0" type="line"/>
      <point x="243" y="0" type="line"/>
      <point x="243" y="255" type="line"/>
      <point x="385" y="255" type="line"/>
      <point x="385" y="335" type="line"/>
      <point x="15" y="335" type="line"/>
      <point x="15" y="255" type="line"/>
      <point x="157" y="255" type="line"/>
    </contour>
  </outline>
</glyph>
<glyph name="brevebelowcomb.case" format="2">
  <anchor x="-300" y="0" name="_bottom"/>
  <anchor x="-300" y="-245" name="bottom"/>
  <outline>
    <contour>
      <point x="-300" y="-245" type="curve" smooth="yes"/>
      <point x="-189" y="-245"/>
      <point x="-115" y="-185"/>
      <point x="-115" y="-95" type="curve"/>
      <point x="-230" y="-95" type="line"/>
      <point x="-230" y="-133"/>
      <point x="-258" y="-158"/>
      <point x="-300" y="-158" type="curve" smooth="yes"/>
      <point x="-341" y="-158"/>
      <point x="-370" y="-133"/>
      <point x="-370" y="-95" type="curve"/>
      <point x="-485" y="-95" type="line"/>
      <point x="-485" y="-185"/>
      <point x="-410" y="-245"/>
    </contour>
  </outline>
</glyph>
<glyph name="circumflexcomb_gravecomb.case" format="2">
  <anchor x="-300" y="730" name="_top"/>
  <anchor x="-258" y="1020" name="top"/>
  <outline>
    <contour>
      <point x="-145" y="905" type="line"/>
      <point x="-10" y="905" type="line"/>
      <point x="-115" y="1020" type="line"/>
      <point x="-260" y="1020" type="line"/>
    </contour>
    <contour>
      <point x="-505" y="780" type="line"/>
      <point x="-369" y="780" type="line"/>
      <point x="-300" y="850" type="line"/>
      <point x="-231" y="780" type="line"/>
      <point x="-95" y="780" type="line"/>
      <point x="-230" y="920" type="line"/>
      <point x="-370" y="920" type="line"/>
    </contour>
  </outline>
</glyph>
<glyph name="circumflexcomb_gravecomb" format="2">
  <anchor x="-300" y="550" name="_top"/>
  <anchor x="-248" y="900" name="top"/>
  <outline>
    <contour>
      <point x="-125" y="760" type="line"/>
      <point x="10" y="760" type="line"/>
      <point x="-110" y="900" type="line"/>
      <point x="-255" y="900" type="line"/>
    </contour>
    <contour>
      <point x="-505" y="645" type="line"/>
      <point x="-369" y="645" type="line"/>
      <point x="-300" y="715" type="line"/>
      <point x="-231" y="645" type="line"/>
      <point x="-95" y="645" type="line"/>
      <point x="-230" y="785" type="line"/>
      <point x="-370" y="785" type="line"/>
    </contour>
  </outline>
</glyph>
<glyph name="dieresisbelowcomb.case" format="2">
  <anchor x="-300" y="0" name="_bottom"/>
  <anchor x="-300" y="-233" name="bottom"/>
  <outline>
    <contour>
      <point x="-178" y="-233" type="curve" smooth="yes"/>
      <point x="-129" y="-233"/>
      <point x="-98" y="-203"/>
      <point x="-98" y="-155" type="curve" smooth="yes"/>
      <point x="-98" y="-107"/>
      <point x="-129" y="-77"/>
      <point x="-178" y="-77" type="curve" smooth="yes"/>
      <point x="-227" y="-77"/>
      <point x="-258" y="-107"/>
      <point x="-258" y="-155" type="curve" smooth="yes"/>
      <point x="-258" y="-203"/>
      <point x="-227" y="-233"/>
    </contour>
    <contour>
      <point x="-422" y="-233" type="curve" smooth="yes"/>
      <point x="-373" y="-233"/>
      <point x="-342" y="-203"/>
      <point x="-342" y="-155" type="curve" smooth="yes"/>
      <point x="-342" y="-107"/>
      <point x="-373" y="-77"/>
      <point x="-422" y="-77" type="curve" smooth="yes"/>
      <point x="-471" y="-77"/>
      <point x="-502" y="-107"/>
      <point x="-502" y="-155" type="curve" smooth="yes"/>
      <point x="-502" y="-203"/>
      <point x="-471" y="-233"/>
    </contour>
  </outline>
</glyph>
<glyph name="dollar_greater.liga" format="2">
  <advance width="600"/>
  <outline>
    <contour>
      <point x="-300" y="-140" type="line"/>
      <point x="-235" y="-140" type="line"/>
      <point x="-235" y="-9" type="line"/>
      <point x="-99" y="2"/>
      <point x="-12" y="86"/>
      <point x="-12" y="206" type="curve" smooth="yes"/>
      <point x="-12" y="324"/>
      <point x="-80" y="402"/>
      <point x="-209" y="432" type="curve" smooth="yes"/>
      <point x="-235" y="438" type="line"/>
      <point x="-235" y="608" type="line"/>
      <point x="-205" y="605"/>
      <point x="-178" y="598"/>
      <point x="-149" y="584" type="curve" smooth="yes"/>
      <point x="346" y="351" type="line" smooth="yes"/>
      <point x="373" y="338"/>
      <point x="400" y="331"/>
      <point x="413" y="328" type="curve"/>
      <point x="400" y="325"/>
      <point x="373" y="318"/>
      <point x="346" y="306" type="curve" smooth="yes"/>
      <point x="70" y="185" type="line"/>
      <point x="70" y="49" type="line"/>
      <point x="530" y="258" type="line"/>
      <point x="530" y="401" type="line"/>
      <point x="-98" y="694" type="line" smooth="yes"/>
      <point x="-145" y="716"/>
      <point x="-195" y="732"/>
      <point x="-235" y="737" type="curve"/>
      <point x="-235" y="870" type="line"/>
      <point x="-300" y="870" type="line"/>
      <point x="-300" y="739" type="line"/>
      <point x="-429" y="727"/>
      <point x="-508" y="647"/>
      <point x="-508" y="529" type="curve" smooth="yes"/>
      <point x="-508" y="414"/>
      <point x="-436" y="331"/>
      <point x="-312" y="302" type="curve" smooth="yes"/>
      <point x="-300" y="299" type="line"/>
      <point x="-300" y="124" type="line"/>
      <point x="-343" y="134"/>
      <point x="-368" y="161"/>
      <point x="-368" y="200" type="curve"/>
      <point x="-518" y="200" type="line"/>
      <point x="-518" y="82"/>
      <point x="-434" y="3"/>
      <point x="-300" y="-9" type="curve"/>
    </contour>
    <contour>
      <point x="-235" y="122" type="curve"/>
      <point x="-235" y="351" type="line"/>
      <point x="-293" y="287" type="line"/>
      <point x="-213" y="295"/>
      <point x="-162" y="257"/>
      <point x="-162" y="199" type="curve" smooth="yes"/>
      <point x="-162" y="157"/>
      <point x="-189" y="129"/>
    </contour>
    <contour>
      <point x="-300" y="387" type="line"/>
      <point x="-245" y="447" type="line"/>
      <point x="-316" y="444"/>
      <point x="-358" y="480"/>
      <point x="-358" y="535" type="curve" smooth="yes"/>
      <point x="-358" y="573"/>
      <point x="-337" y="598"/>
      <point x="-300" y="607" type="curve"/>
    </contour>
  </outline>
</glyph>
<glyph name="equal_greater_greater.liga" format="2">
  <advance width="600"/>
  <outline>
    <contour>
      <point x="-187" y="35" type="line"/>
      <point x="-11" y="35" type="line"/>
      <point x="210" y="330" type="line"/>
      <point x="-10" y="625" type="line"/>
      <point x="-187" y="625" type="line"/>
      <point x="-113" y="525" type="line"/>
      <point x="-1120" y="525" type="line"/>
      <point x="-1120" y="385" type="line"/>
      <point x="58" y="385" type="line"/>
      <point x="-72" y="471" type="line"/>
      <point x="-4" y="376"/>
      <point x="30" y="333"/>
      <point x="38" y="328" type="curve"/>
      <point x="31" y="323"/>
      <point x="-5" y="280"/>
      <point x="-71" y="190" type="curve"/>
      <point x="60" y="275" type="line"/>
      <point x="-1120" y="275" type="line"/>
      <point x="-1120" y="135" type="line"/>
      <point x="-112" y="135" type="line"/>
    </contour>
    <contour>
      <point x="133" y="35" type="line"/>
      <point x="309" y="35" type="line"/>
      <point x="530" y="330" type="line"/>
      <point x="310" y="625" type="line"/>
      <point x="133" y="625" type="line"/>
      <point x="289" y="414" type="line" smooth="yes"/>
      <point x="330" y="359"/>
      <point x="352" y="332"/>
      <point x="358" y="328" type="curve"/>
      <point x="353" y="324"/>
      <point x="331" y="299"/>
      <point x="290" y="245" type="curve" smooth="yes"/>
    </contour>
  </outline>
</glyph>
<glyph name="equal_less_less.liga" format="2">
  <advance width="600"/>
  <outline>
    <contour>
      <point x="13" y="35" type="line"/>
      <point x="190" y="35" type="line"/>
      <point x="34" y="246" type="line"/>
      <point x="-31" y="331" type="line"/>
      <point x="33" y="415" type="line"/>
      <point x="190" y="625" type="line"/>
      <point x="14" y="625" type="line"/>
      <point x="-61" y="525" type="line"/>
      <point x="-1120" y="525" type="line"/>
      <point x="-1120" y="385" type="line"/>
      <point x="-166" y="385" type="line"/>
      <point x="-207" y="330" type="line"/>
      <point x="-166" y="275" type="line"/>
      <point x="-1120" y="275" type="line"/>
      <point x="-1120" y="135" type="line"/>
      <point x="-62" y="135" type="line"/>
    </contour>
    <contour>
      <point x="333" y="35" type="line"/>
      <point x="510" y="35" type="line"/>
      <point x="354" y="246" type="line"/>
      <point x="289" y="331" type="line"/>
      <point x="353" y="415" type="line"/>
      <point x="510" y="625" type="line"/>
      <point x="334" y="625" type="line"/>
      <point x="113" y="330" type="line"/>
    </contour>
  </outline>
</glyph>
<glyph name="four.half" format="2">
  <advance width="400"/>
  <outline>
    <contour>
      <point x="252" y="0" type="line"/>
      <point x="336" y="0" type="line"/>
      <point x="336" y="225" type="line"/>
      <point x="252" y="225" type="line"/>
      <point x="252" y="136" type="line"/>
      <point x="141" y="136" type="line"/>
      <point x="141" y="146" type="line"/>
      <point x="308" y="335" type="line"/>
      <point x="210" y="335" type="line"/>
      <point x="47" y="155" type="line"/>
      <point x="47" y="56" type="line"/>
      <point x="252" y="56" type="line"/>
    </contour>
  </outline>
</glyph>
<glyph name="hungarumlautcomb.case" format="2">
  <anchor x="-300" y="730" name="_top"/>
  <anchor x="-263" y="950" name="top"/>
  <outline>
    <contour>
      <point x="-278" y="810" type="line"/>
      <point x="-145" y="810" type="line"/>
      <point x="-30" y="950" type="line"/>
      <point x="-173" y="950" type="line"/>
    </contour>
    <contour>
      <point x="-495" y="810" type="line"/>
      <point x="-362" y="810" type="line"/>
      <point x="-247" y="950" type="line"/>
      <point x="-390" y="950" type="line"/>
    </contour>
  </outline>
</glyph>
<glyph name="hyphen_less_less.liga" format="2">
  <advance width="600"/>
  <outline>
    <contour>
      <point x="-10" y="35" type="line"/>
      <point x="167" y="35" type="line"/>
      <point x="11" y="246" type="line"/>
      <point x="-54" y="331" type="line"/>
      <point x="10" y="415" type="line"/>
      <point x="167" y="625" type="line"/>
      <point x="-9" y="625" type="line"/>
      <point x="-178" y="400" type="line"/>
      <point x="-1120" y="400" type="line"/>
      <point x="-1120" y="260" type="line"/>
      <point x="-178" y="260" type="line"/>
    </contour>
    <contour>
      <point x="333" y="35" type="line"/>
      <point x="510" y="35" type="line"/>
      <point x="354" y="246" type="line"/>
      <point x="289" y="331" type="line"/>
      <point x="353" y="415" type="line"/>
      <point x="510" y="625" type="line"/>
      <point x="334" y="625" type="line"/>
      <point x="113" y="330" type="line"/>
    </contour>
  </outline>
</glyph>
<glyph name="less_hyphen_less.liga" format="2">
  <advance width="600"/>
  <outline>
    <contour>
      <point x="-910" y="35" type="line"/>
      <point x="-733" y="35" type="line"/>
      <point x="-899" y="260" type="line"/>
      <point x="165" y="260" type="line"/>
      <point x="333" y="35" type="line"/>
      <point x="510" y="35" type="line"/>
      <point x="294" y="331" type="line"/>
      <point x="510" y="625" type="line"/>
      <point x="334" y="625" type="line"/>
      <point x="165" y="400" type="line"/>
      <point x="-901" y="400" type="line"/>
      <point x="-733" y="625" type="line"/>
      <point x="-909" y="625" type="line"/>
      <point x="-1130" y="330" type="line"/>
    </contour>
  </outline>
</glyph>
<glyph name="less_less_asciitilde.liga" format="2">
  <advance width="600"/>
  <outline>
    <contour>
      <point x="-590" y="35" type="line"/>
      <point x="-413" y="35" type="line"/>
      <point x="-634" y="331" type="line"/>
      <point x="-413" y="625" type="line"/>
      <point x="-589" y="625" type="line"/>
      <point x="-810" y="330" type="line"/>
    </contour>
    <contour>
      <point x="-910" y="35" type="line"/>
      <point x="-733" y="35" type="line"/>
      <point x="-952" y="331" type="line"/>
      <point x="-733" y="625" type="line"/>
      <point x="-909" y="625" type="line"/>
      <point x="-1130" y="330" type="line"/>
    </contour>
    <contour>
      <point x="-670" y="331" type="line"/>
      <point x="-575" y="330" type="line"/>
      <point x="-520" y="330"/>
      <point x="-500" y="230"/>
      <point x="-380" y="230" type="curve" smooth="yes"/>
      <point x="-260" y="230"/>
      <point x="-240" y="330"/>
      <point x="-185" y="330" type="curve" smooth="yes"/>
      <point x="-130" y="330"/>
      <point x="-110" y="230"/>
      <point x="10" y="230" type="curve" smooth="yes"/>
      <point x="130" y="230"/>
      <point x="150" y="330"/>
      <point x="205" y="330" type="curve" smooth="yes"/>
      <point x="260" y="330"/>
      <point x="280" y="230"/>
      <point x="390" y="230" type="curve" smooth="yes"/>
      <point x="474" y="230"/>
      <point x="530" y="280"/>
      <point x="530" y="355" type="curve" smooth="yes"/>
      <point x="530" y="400" type="line"/>
      <point x="420" y="400" type="line"/>
      <point x="420" y="368" type="line" smooth="yes"/>
      <point x="420" y="345"/>
      <point x="407" y="330"/>
      <point x="380" y="330" type="curve" smooth="yes"/>
      <point x="325" y="330"/>
      <point x="325" y="430"/>
      <point x="205" y="430" type="curve" smooth="yes"/>
      <point x="85" y="430"/>
      <point x="65" y="330"/>
      <point x="10" y="330" type="curve" smooth="yes"/>
      <point x="-45" y="330"/>
      <point x="-75" y="430"/>
      <point x="-185" y="430" type="curve" smooth="yes"/>
      <point x="-305" y="430"/>
      <point x="-325" y="330"/>
      <point x="-380" y="330" type="curve" smooth="yes"/>
      <point x="-435" y="330"/>
      <point x="-465" y="430"/>
      <point x="-575" y="430" type="curve"/>
      <point x="-670" y="431" type="line"/>
    </contour>
  </outline>
</glyph>
<glyph name="numbersign_bracketleft.liga" format="2">
  <advance width="600"/>
  <outline>
    <contour>
      <point x="-528" y="0" type="line"/>
      <point x="-428" y="0" type="line"/>
      <point x="-398" y="175" type="line"/>
      <point x="-268" y="175" type="line"/>
      <point x="-298" y="0" type="line"/>
      <point x="-198" y="0" type="line"/>
      <point x="-168" y="175" type="line"/>
      <point x="264" y="175" type="line"/>
      <point x="264" y="275" type="line"/>
      <point x="-151" y="275" type="line"/>
      <point x="-122" y="455" type="line"/>
      <point x="264" y="455" type="line"/>
      <point x="264" y="555" type="line"/>
      <point x="-105" y="555" type="line"/>
      <point x="-74" y="730" type="line"/>
      <point x="-174" y="730" type="line"/>
      <point x="-205" y="555" type="line"/>
      <point x="-335" y="555" type="line"/>
      <point x="-304" y="730" type="line"/>
      <point x="-404" y="730" type="line"/>
      <point x="-435" y="555" type="line"/>
      <point x="-531" y="555" type="line"/>
      <point x="-531" y="455" type="line"/>
      <point x="-452" y="455" type="line"/>
      <point x="-481" y="275" type="line"/>
      <point x="-566" y="275" type="line"/>
      <point x="-566" y="175" type="line"/>
      <point x="-498" y="175" type="line"/>
    </contour>
    <contour>
      <point x="-381" y="275" type="line"/>
      <point x="-352" y="455" type="line"/>
      <point x="-222" y="455" type="line"/>
      <point x="-251" y="275" type="line"/>
    </contour>
    <component base="bracketleft"/>
  </outline>
</glyph>
